<?xml version="1.0" standalone="no"?>
<!DOCTYPE svg PUBLIC "-//W3C//DTD SVG 20010904//EN"
 "http://www.w3.org/TR/2001/REC-SVG-20010904/DTD/svg10.dtd">
<svg version="1.0" xmlns="http://www.w3.org/2000/svg"
 width="512.000000pt" height="512.000000pt" viewBox="0 0 512.000000 512.000000"
 preserveAspectRatio="xMidYMid meet">

<g transform="translate(0.000000,512.000000) scale(0.100000,-0.100000)"
fill="#000000" stroke="none">
<path d="M1001 4784 c-169 -45 -301 -180 -346 -351 -23 -86 -23 -3660 0 -3746
45 -173 178 -307 350 -352 87 -22 783 -22 870 0 172 45 305 179 350 352 23 86
23 3660 0 3746 -45 173 -178 307 -350 352 -84 21 -793 21 -874 -1z m845 -330
c15 -11 37 -33 48 -48 l21 -27 0 -1819 0 -1819 -21 -27 c-11 -15 -33 -37 -48
-48 -27 -20 -39 -21 -406 -21 -367 0 -379 1 -406 21 -15 11 -37 33 -48 48
l-21 27 -3 1792 c-1 986 0 1806 3 1824 7 40 49 91 90 109 24 11 107 13 397 11
353 -2 368 -3 394 -23z"/>
<path d="M3241 4784 c-169 -45 -301 -180 -346 -351 -23 -86 -23 -3660 0 -3746
45 -173 178 -307 350 -352 87 -22 783 -22 870 0 172 45 305 179 350 352 23 86
23 3660 0 3746 -45 173 -178 307 -350 352 -84 21 -793 21 -874 -1z m845 -330
c15 -11 37 -33 48 -48 l21 -27 0 -1819 0 -1819 -21 -27 c-11 -15 -33 -37 -48
-48 -27 -20 -39 -21 -406 -21 -367 0 -379 1 -406 21 -15 11 -37 33 -48 48
l-21 27 -3 1792 c-1 986 0 1806 3 1824 7 40 49 91 90 109 24 11 107 13 397 11
353 -2 368 -3 394 -23z"/>
</g>
</svg>
